<svg width="128" height="97" viewBox="0 0 128 97" fill="none" xmlns="http://www.w3.org/2000/svg">
<g id="discord-mark-blue 1" clip-path="url(#clip0_3_67)">
<g id="&#229;&#155;&#190;&#229;&#177;&#130; 2">
<g id="Discord Logos">
<g id="Discord Logo - Large - White">
<path id="Vector" d="M108.13 8.07012C99.7766 4.2458 90.9582 1.5327 81.8998 0.00012207C80.6603 2.216 79.5387 4.49585 78.5398 6.83012C68.891 5.37614 59.0787 5.37614 49.4298 6.83012C48.4304 4.49609 47.3089 2.21627 46.0698 0.00012207C37.0057 1.54564 28.1815 4.26518 19.8198 8.09012C3.21984 32.6501 -1.28016 56.6001 0.969836 80.2101C10.6912 87.3927 21.5722 92.8552 33.1398 96.3601C35.7445 92.8569 38.0493 89.1404 40.0298 85.2501C36.2682 83.8452 32.6375 82.1118 29.1798 80.0701C30.0898 79.4101 30.9798 78.7301 31.8398 78.0701C41.9008 82.8016 52.8818 85.2547 63.9998 85.2547C75.1178 85.2547 86.0989 82.8016 96.1598 78.0701C97.0298 78.7801 97.9198 79.4601 98.8198 80.0701C95.3555 82.1151 91.7182 83.8518 87.9498 85.2601C89.9279 89.1486 92.2329 92.862 94.8398 96.3601C106.417 92.8692 117.307 87.4094 127.03 80.2201C129.67 52.8401 122.52 29.1101 108.13 8.07012ZM42.8798 65.6901C36.6098 65.6901 31.4298 60.0001 31.4298 53.0001C31.4298 46.0001 36.4298 40.2601 42.8598 40.2601C49.2898 40.2601 54.4298 46.0001 54.3198 53.0001C54.2098 60.0001 49.2698 65.6901 42.8798 65.6901ZM85.1198 65.6901C78.8398 65.6901 73.6798 60.0001 73.6798 53.0001C73.6798 46.0001 78.6798 40.2601 85.1198 40.2601C91.5598 40.2601 96.6598 46.0001 96.5498 53.0001C96.4398 60.0001 91.5098 65.6901 85.1198 65.6901Z" fill="#5865F2"/>
</g>
</g>
</g>
</g>
<defs>
<clipPath id="clip0_3_67">
<rect width="127.14" height="96.36" fill="white" transform="translate(0.429932 0.00012207)"/>
</clipPath>
</defs>
</svg>
